<svg width="91" height="92" viewBox="0 0 91 92" fill="none" xmlns="http://www.w3.org/2000/svg">
<path d="M77.6797 13.4647C81.8663 17.6514 82.1175 24.4337 84.2586 29.5892C86.4716 34.9361 91.0051 39.9481 91.0051 45.6419C91.0051 51.3357 86.4716 56.3476 84.2586 61.6945C82.1294 66.8501 81.8782 73.6204 77.6797 77.819C73.4811 82.0176 66.7107 82.2568 61.5552 84.398C56.2083 86.6109 51.1963 91.1444 45.5025 91.1444C39.8087 91.1444 34.7968 86.6109 29.4498 84.398C24.2943 82.2688 17.524 82.0176 13.3254 77.819C9.13878 73.6324 8.88759 66.8501 6.74643 61.6945C4.60528 56.539 0 51.3357 0 45.6419C0 39.9481 4.53351 34.9361 6.74643 29.5892C8.87562 24.4337 9.12682 17.6633 13.3254 13.4647C17.512 9.27813 24.2943 9.02693 29.4498 6.88577C34.7968 4.67285 39.8087 0.139343 45.5025 0.139343C51.1963 0.139343 56.2083 4.67285 61.5552 6.88577C66.7107 9.01497 73.4811 9.26616 77.6797 13.4647Z" fill="url(#paint0_linear_224_160)"/>
<defs>
<linearGradient id="paint0_linear_224_160" x1="66.7705" y1="10.1394" x2="24.5216" y2="80.6659" gradientUnits="userSpaceOnUse">
<stop stop-color="#005FBE"/>
<stop offset="1" stop-color="#005FBE"/>
</linearGradient>
</defs>
</svg>
