<svg width="20" height="19" viewBox="0 0 20 19" fill="none" xmlns="http://www.w3.org/2000/svg">
<path d="M20 2.20805C19.2483 2.57718 18.4534 2.8212 17.64 2.93252C18.4982 2.35217 19.1413 1.43918 19.45 0.362914C18.6436 0.906337 17.7608 1.28921 16.84 1.4949C16.2245 0.73938 15.405 0.236467 14.5098 0.0650344C13.6147 -0.106399 12.6945 0.0633443 11.8938 0.547642C11.093 1.03194 10.4569 1.8034 10.0852 2.74103C9.71355 3.67865 9.62729 4.72941 9.84 5.72851C8.20943 5.63515 6.61444 5.15455 5.15865 4.31791C3.70287 3.48127 2.41885 2.30731 1.39 0.872306C1.02914 1.58565 0.839519 2.39349 0.84 3.21551C0.83872 3.9789 1.00422 4.7308 1.32176 5.40427C1.63929 6.07774 2.09902 6.65188 2.66 7.07557C2.00798 7.05549 1.36989 6.85744 0.8 6.49826V6.55486C0.804887 7.62446 1.13599 8.65932 1.73731 9.48439C2.33864 10.3095 3.17326 10.8741 4.1 11.0828C3.74326 11.2057 3.37287 11.2705 3 11.2752C2.74189 11.2718 2.48442 11.2453 2.23 11.196C2.49391 12.1161 3.00462 12.9202 3.69107 13.4964C4.37753 14.0726 5.20558 14.3922 6.06 14.4108C4.6172 15.6959 2.83588 16.3973 1 16.4031C0.665735 16.4044 0.331736 16.3817 0 16.3352C1.87443 17.7052 4.05881 18.4324 6.29 18.4294C7.82969 18.4475 9.35714 18.1181 10.7831 17.4605C12.2091 16.8029 13.505 15.8302 14.5952 14.5993C15.6854 13.3684 16.548 11.9039 17.1326 10.2914C17.7172 8.67894 18.012 6.95075 18 5.2078C18 5.01536 18 4.81161 18 4.60785C18.7847 3.94543 19.4615 3.13336 20 2.20805Z" fill="white"/>
</svg>
